<?xml version="1.0" encoding="utf-8"?>
<svg version="1.1" xmlns="http://www.w3.org/2000/svg" viewBox="0 0 800 222" xml:space="preserve">
<style type="text/css">
	.st0{fill:#FFFFFF;}
	.st1{fill:#EE312E;}
	.st2{fill:#AF292E;}
	.st3{fill:#D3222A;}
</style>
<g>
	<rect x="362.89" y="85.89" class="st0" width="18.73" height="84.72"/>
	<rect x="362.89" y="54.16" class="st0" width="18.73" height="21.1"/>
	<rect x="399.43" y="52.29" class="st0" width="18.73" height="118.33"/>
	<rect x="439.04" y="85.89" class="st0" width="18.73" height="84.72"/>
	<rect x="439.04" y="54.16" class="st0" width="18.73" height="21.1"/>
	<path class="st0" d="M538.68,96.12c-2.68-3.34-5.83-6.02-9.44-8.04c-4.86-2.71-10.47-4.06-16.81-4.06c-7.68,0-14.54,1.8-20.57,5.39
		c-6.04,3.6-10.82,8.52-14.36,14.77c-3.53,6.25-5.3,13.39-5.3,21.42c0,7.92,1.76,15.06,5.3,21.42c3.53,6.35,8.37,11.36,14.51,15
		c6.14,3.65,13.05,5.47,20.73,5.47c6.24,0,11.85-1.35,16.81-4.07c3.17-1.73,5.9-3.97,8.21-6.72v9.84c0,4.37-0.95,8.13-2.84,11.25
		c-1.89,3.13-4.48,5.5-7.75,7.11c-3.28,1.61-7.06,2.42-11.36,2.42c-5.43,0-10.01-1.25-13.74-3.75c-3.74-2.5-6.27-5.73-7.6-9.69
		l-17.35,6.88c1.74,4.9,4.5,9.15,8.29,12.74c3.78,3.6,8.29,6.41,13.51,8.44c5.22,2.03,10.9,3.05,17.04,3.05
		c7.88,0,14.87-1.67,20.96-5c6.09-3.34,10.87-7.89,14.36-13.68c3.48-5.79,5.22-12.38,5.22-19.77V85.89h-17.81V96.12z M534.85,138.11
		c-1.95,3.65-4.63,6.51-8.06,8.6c-3.43,2.08-7.35,3.13-11.75,3.13c-4.51,0-8.52-1.07-12.05-3.21c-3.53-2.13-6.29-5-8.29-8.6
		c-2-3.6-2.99-7.68-2.99-12.27c0-4.59,1-8.7,2.99-12.35c2-3.65,4.76-6.54,8.29-8.68c3.53-2.13,7.55-3.21,12.05-3.21
		c4.3,0,8.16,1.07,11.59,3.21c3.43,2.14,6.14,5.03,8.14,8.68c2,3.65,2.99,7.76,2.99,12.35
		C537.76,130.34,536.79,134.46,534.85,138.11z"/>
	<path class="st0" d="M638.71,96.21c-3.43-3.86-7.63-6.85-12.59-8.99c-4.97-2.13-10.62-3.21-16.97-3.21c-7.78,0-14.79,1.9-21.04,5.7
		c-6.24,3.81-11.18,9.02-14.82,15.63c-3.63,6.62-5.45,14.15-5.45,22.59c0,8.34,1.79,15.87,5.37,22.59
		c3.58,6.72,8.6,12.06,15.05,16.02s13.87,5.94,22.26,5.94c5.73,0,10.98-0.89,15.74-2.66c4.76-1.77,8.88-4.24,12.36-7.42
		c3.48-3.18,6.04-6.75,7.68-10.71l-15.35-7.66c-1.95,3.44-4.61,6.23-7.98,8.36c-3.38,2.14-7.47,3.21-12.28,3.21
		c-4.71,0-8.91-1.12-12.59-3.36c-3.69-2.24-6.5-5.44-8.44-9.61c-1.25-2.69-2.01-5.66-2.29-8.91h60.94c0.41-1.25,0.67-2.63,0.77-4.14
		c0.1-1.51,0.15-2.94,0.15-4.3c0-5.63-0.9-10.92-2.69-15.87C644.75,104.47,642.14,100.07,638.71,96.21z M589.5,112.86
		c1.84-4.22,4.48-7.45,7.91-9.69c3.43-2.24,7.34-3.36,11.75-3.36c4.5,0,8.39,1.15,11.67,3.44c3.28,2.29,5.68,5.37,7.22,9.22
		c0.79,2,1.24,4.13,1.35,6.41h-41.64C588.13,116.71,588.7,114.7,589.5,112.86z"/>
	<path class="st0" d="M721.31,88.08c-4.76-2.71-10.21-4.06-16.35-4.06c-5.94,0-11.13,1.36-15.58,4.06
		c-3.34,2.03-5.98,4.77-7.91,8.22V85.89h-17.81v84.72h18.73v-49.87c0-3.96,0.74-7.37,2.23-10.24c1.48-2.87,3.58-5.08,6.3-6.64
		c2.71-1.56,5.81-2.35,9.29-2.35c3.38,0,6.4,0.78,9.06,2.35c2.66,1.56,4.73,3.78,6.22,6.64c1.48,2.87,2.23,6.28,2.23,10.24v49.87
		h18.73v-54.71c0-6.25-1.33-11.77-3.99-16.57C729.78,94.55,726.08,90.79,721.31,88.08z"/>
	<path class="st0" d="M797.16,154.52c-0.97,0.1-1.87,0.16-2.69,0.16c-3.17,0-5.81-0.52-7.91-1.56c-2.1-1.04-3.63-2.55-4.61-4.53
		c-0.97-1.98-1.46-4.43-1.46-7.35v-38.3h19.04V85.89H780.5V66.51h-18.73v6.56c0,4.06-1.1,7.22-3.3,9.46
		c-2.2,2.24-5.3,3.36-9.29,3.36h-1.84v17.04h14.43v39.23c0,9.38,2.51,16.62,7.52,21.73c5.01,5.11,12.08,7.66,21.19,7.66
		c1.43,0,3.04-0.1,4.84-0.31c1.79-0.21,3.35-0.42,4.68-0.63V154.2C799.08,154.31,798.13,154.42,797.16,154.52z"/>
	<path class="st0" d="M318.14,61.51c-8.85-4.9-19.27-7.34-31.24-7.34h-41.94v116.46h41.94c11.98,0,22.39-2.48,31.24-7.43
		c8.85-4.95,15.71-11.8,20.57-20.56c4.86-8.75,7.29-18.86,7.29-30.33c0-11.46-2.43-21.57-7.29-30.33
		C333.85,73.23,327,66.41,318.14,61.51z M321.52,133.81c-3.22,6.1-7.75,10.81-13.59,14.15c-5.83,3.34-12.74,5-20.73,5h-22.75V71.83
		h22.75c7.98,0,14.89,1.64,20.73,4.92c5.83,3.28,10.36,7.95,13.59,13.99c3.22,6.05,4.84,13.18,4.84,21.42
		C326.36,120.49,324.75,127.71,321.52,133.81z"/>
</g>
<g>
	<path class="st1" d="M200.87,110.85c0,33.96-12.19,61.94-33.03,81.28c-0.24,0.21-0.42,0.43-0.66,0.64
		c-15.5,14.13-35.71,23.52-59.24,27.11l-1.59-1.62l35.07-201.75l1.32-3.69C178.64,30.36,200.87,65.37,200.87,110.85z"/>
	<path class="st2" d="M142.75,12.83l-0.99,1.47L0.74,119.34L0,118.65c0,0,0-0.03,0-0.06V0.45h85.63c5.91,0,11.64,0.34,17.19,1.01
		h0.21c14.02,1.66,26.93,5.31,38.48,10.78C141.97,12.46,142.75,12.83,142.75,12.83z"/>
	<g>
		<path class="st3" d="M142.75,12.83L0,118.65v99.27v3.62h85.96c7.61,0,14.94-0.58,21.99-1.66
			C107.95,219.89,142.75,12.83,142.75,12.83z"/>
	</g>
</g>
</svg>
